HandBrake 20250906052339-dddf75f75-makepkg (2025092401)
OS: Arch Linux
Kernel: Linux 6.17.2-arch1-1 (x86_64)
CPU: 13th Gen Intel(R) Core(TM) i5-13600KF x 20
Install Dir: /usr/bin
Config Dir:  /home/ryskowalski/.config/ghb
_______________________________

[16:23:09] Compile-time hardening features are enabled
[16:23:09] nvenc: version 13.0 is available
[16:23:09] nvdec: is available
[16:23:09] CUDA Version: 8.9
[16:23:09] vcn: not available on this system
[16:23:09] qsv: not available on this system
[16:23:09] hb_init: starting libhb thread
[16:23:09] hb_init: starting libhb thread
[16:23:09] hb_init: starting libhb thread

(fr.handbrake.ghb:62898): Gtk-WARNING **: 16:23:10.081: GtkGrid 0x5591fab4c0e0 (grid) reported min width 261 and natural width 260 in measure() with for_size=-1; natural size must be >= min size
[16:23:10] gtkgui: Excluded extension jpg
[16:23:10] gtkgui: Excluded extension png
[16:23:10] gtkgui: Excluded extension srt
[16:23:10] gtkgui: Excluded extension ssa
[16:23:10] gtkgui: Excluded extension ass
[16:23:10] gtkgui: Excluded extension txt
[16:23:10] CPU: 13th Gen Intel(R) Core(TM) i5-13600KF
[16:23:10]  - logical processor count: 20
[16:23:10] Intel Quick Sync Video support: no
[16:23:10] hb_scan: path=/home/ryskowalski/output.mp4, title_index=0

(fr.handbrake.ghb:62898): Gtk-WARNING **: 16:23:10.123: GtkGrid 0x5591fab4c0e0 (grid) reported min width 261 and natural width 260 in measure() with for_size=-1; natural size must be >= min size
Input #0, mov,mp4,m4a,3gp,3g2,mj2, from '/home/ryskowalski/output.mp4':
  Metadata:
    major_brand     : isom
    minor_version   : 512
    compatible_brands: isomiso2avc1mp41
    encoder         : Lavf62.3.100
  Duration: 00:00:52.60, start: 0.000000, bitrate: 754 kb/s
  Stream #0:0[0x1](und): Video: h264 (High) (avc1 / 0x31637661), yuv420p(progressive), 720x576 [SAR 16:15 DAR 4:3], 620 kb/s, 25 fps, 25 tbr, 12800 tbn (default)
      Metadata:
        handler_name    : VideoHandler
        vendor_id       : [0][0][0][0]
        encoder         : Lavc62.11.100 libx264
  Stream #0:1[0x2](und): Audio: aac (LC) (mp4a / 0x6134706D), 48000 Hz, stereo, fltp, 128 kb/s (default)
      Metadata:
        handler_name    : SoundHandler
        vendor_id       : [0][0][0][0]
[16:23:10] scan: decoding previews for title 1
[16:23:10] scan: audio 0x1: aac, rate=48000Hz, bitrate=128666 Unknown (AAC LC, 2.0 ch, 128 kbps)
[16:23:10] using bitstream PAR 16:15
[16:23:10] scan: 10 previews, 720x576, 25.000 fps, autocrop = 0/0/0/0, aspect 4:3, PAR 16:15, color profile: 5-1-6, chroma location: left
[16:23:10] libhb: scan thread found 1 valid title(s)

(fr.handbrake.ghb:62898): Gtk-WARNING **: 16:23:10.390: GtkGrid 0x5591fab4c0e0 (grid) reported min width 261 and natural width 260 in measure() with for_size=-1; natural size must be >= min size
